<!-- Generated by IcoMoon.io -->
<svg version="1.1" xmlns="http://www.w3.org/2000/svg" width="170" height="92" viewBox="0 0 1892 1024">
<title></title>
<g id="icomoon-ignore">
</g>
<path d="M624.929 412.973h-0.033c-26.691 0-48.328 19.222-48.328 42.941v0.033c0 23.719 21.638 42.952 48.328 42.952h0.033c26.691 0 48.328-19.233 48.328-42.952v-0.022c0-23.73-21.638-42.963-48.328-42.963zM981.649 399.249c-0.078-32.946-14.837-64.534-41.049-87.83s-61.741-36.419-98.805-36.497c-37.087 0.056-72.626 13.178-98.861 36.474-26.223 23.307-40.993 54.884-41.071 87.841v181.682s279.752-27.693 279.786-181.649v-0.033zM478.609 640.557c0.067 22.929 10.351 44.889 28.583 61.106 18.232 16.206 42.952 25.344 68.742 25.411 25.789-0.067 50.499-9.205 68.742-25.411 18.232-16.206 28.516-38.166 28.583-61.084v-126.419s-194.649 19.289-194.649 126.397zM575.933 663.196c-5.042 0-9.962-1.325-14.158-3.818-4.077-2.396-7.296-5.865-9.322-10.023l-0.061-0.139c-1.221-2.534-1.935-5.51-1.935-8.652 0-1.569 0.178-3.096 0.514-4.562l-0.026 0.137c0.979-4.397 3.406-8.437 6.968-11.598 3.562-3.172 8.103-5.331 13.045-6.2 1.5-0.28 3.226-0.441 4.989-0.441 3.498 0 6.849 0.631 9.944 1.785l-0.197-0.064c4.653 1.714 8.637 4.619 11.431 8.348 2.805 3.729 4.296 8.103 4.296 12.577 0.011 2.983-0.634 5.944-1.914 8.704-1.376 2.894-3.235 5.344-5.497 7.348l-0.024 0.021c-2.36 2.115-5.176 3.784-8.281 4.931-2.9 1.1-6.252 1.736-9.753 1.736-0.007 0-0.014 0-0.020 0h0.001v-0.089zM772.653 650.73h-18.788v19.4h-9.784v-47.494h30.92v7.925h-21.137v12.266h18.788v7.891zM819.667 647.469c0 4.675-0.824 8.771-2.471 12.288-1.658 3.528-4.029 6.233-7.123 8.159-2.903 1.805-6.427 2.875-10.2 2.875-0.124 0-0.247-0.001-0.37-0.003h0.018c-3.94 0-7.457-0.946-10.541-2.838-3.118-1.956-5.574-4.709-7.119-7.977l-0.049-0.115c-1.625-3.436-2.574-7.465-2.574-11.716 0-0.146 0.001-0.292 0.003-0.438v0.022-2.337c0-4.675 0.835-8.793 2.504-12.333 1.692-3.562 4.074-6.3 7.146-8.181 3.083-1.914 6.6-2.872 10.563-2.872 3.951 0 7.457 0.957 10.529 2.872 3.083 1.892 5.465 4.619 7.146 8.181 1.692 3.539 2.538 7.635 2.538 12.288v2.115zM809.761 645.309c0-4.975-0.89-8.76-2.671-11.353-1.585-2.354-4.24-3.882-7.252-3.882-0.135 0-0.269 0.003-0.402 0.009l0.019-0.001c-0.111-0.005-0.241-0.008-0.371-0.008-3.001 0-5.646 1.518-7.211 3.828l-0.020 0.031c-1.781 2.549-2.682 6.278-2.705 11.219v2.315c0 4.842 0.89 8.604 2.671 11.275s4.341 4.007 7.702 4.007c0.115 0.006 0.25 0.009 0.386 0.009 2.984 0 5.614-1.515 7.163-3.818l0.020-0.031c1.759-2.582 2.649-6.344 2.671-11.286v-2.315zM851.389 657.664c0.005-0.082 0.008-0.179 0.008-0.276 0-1.607-0.762-3.036-1.944-3.945l-0.012-0.009c-1.302-1.002-3.651-2.048-7.046-3.128-3.127-0.975-5.792-2.081-8.331-3.395l0.284 0.134c-5.398-2.916-8.092-6.845-8.092-11.776 0-2.56 0.723-4.853 2.148-6.845 1.458-2.026 3.539-3.595 6.233-4.73 2.716-1.124 5.766-1.692 9.127-1.692 3.395 0 6.411 0.612 9.071 1.859 2.649 1.224 4.708 2.938 6.155 5.187 1.48 2.226 2.226 4.786 2.226 7.624h-9.795c0-2.17-0.668-3.862-2.048-5.053-1.369-1.224-3.295-1.825-5.766-1.825-2.393 0-4.252 0.512-5.576 1.536-1.213 0.87-1.994 2.276-1.994 3.864 0 0.038 0 0.077 0.001 0.115v-0.006c0 1.547 0.779 2.838 2.315 3.885 1.558 1.035 3.862 2.015 6.879 2.927 5.565 1.67 9.617 3.751 12.166 6.233 2.538 2.471 3.818 5.565 3.818 9.261 0 4.107-1.558 7.346-4.675 9.683-3.094 2.326-7.279 3.495-12.544 3.495-3.651 0-6.979-0.668-9.984-2.003-2.818-1.197-5.147-3.082-6.846-5.45l-0.033-0.048c-1.467-2.193-2.341-4.889-2.341-7.791 0-0.106 0.001-0.212 0.003-0.317v0.016h9.806c0 5.231 3.128 7.858 9.394 7.858 2.326 0 4.141-0.467 5.454-1.402 1.187-0.854 1.952-2.232 1.952-3.788 0-0.065-0.001-0.13-0.004-0.195v0.009zM903.602 630.573h-14.536v39.558h-9.795v-39.558h-14.325v-7.925h38.667v7.925zM937.773 649.55h-18.777v12.722h22.038v7.858h-31.822v-47.494h31.766v7.925h-21.983v11.32h18.788v7.658zM964.352 652.744h-7.791v17.386h-9.784v-47.494h17.642c5.61 0 9.939 1.258 12.978 3.751 3.050 2.504 4.563 6.033 4.563 10.596 0 3.239-0.701 5.955-2.115 8.125-1.571 2.281-3.731 4.054-6.262 5.118l-0.094 0.035 10.262 19.4v0.445h-10.496l-8.904-17.363zM956.561 644.819h7.903c2.449 0 4.341-0.612 5.699-1.848 1.25-1.227 2.024-2.934 2.024-4.823 0-0.128-0.004-0.255-0.011-0.382l0.001 0.018c0-2.248-0.634-4.007-1.914-5.287-1.269-1.28-3.206-1.926-5.843-1.926h-7.858v14.247zM1015.841 653.401v16.729h-9.784v-47.494h18.521c3.562 0 6.701 0.657 9.394 1.959 2.716 1.302 4.808 3.161 6.266 5.576 1.447 2.393 2.182 5.12 2.182 8.181 0 4.653-1.603 8.326-4.786 11.019-3.183 2.671-7.58 4.018-13.212 4.018h-8.57zM1015.841 645.476h8.737c2.593 0 4.563-0.612 5.899-1.825 1.38-1.224 2.059-2.961 2.059-5.22 0.005-0.105 0.008-0.228 0.008-0.352 0-2.042-0.781-3.902-2.061-5.297l0.005 0.006c-1.369-1.425-3.261-2.17-5.677-2.215h-8.971v14.915zM1077.727 649.55h-18.777v12.722h22.038v7.858h-31.822v-47.494h31.766v7.925h-21.983v11.32h18.788v7.658zM1123.128 630.573h-14.547v39.558h-9.784v-39.558h-14.347v-7.925h38.678v7.925zM1157.298 649.55h-18.777v12.722h22.038v7.858h-31.822v-47.494h31.755v7.925h-21.971v11.32h18.777v7.658zM1183.878 652.744h-7.791v17.386h-9.784v-47.494h17.642c5.61 0 9.928 1.258 12.978 3.751 3.039 2.504 4.563 6.033 4.563 10.596 0 3.239-0.701 5.955-2.115 8.125-1.575 2.282-3.738 4.055-6.272 5.118l-0.094 0.035 10.273 19.4v0.445h-10.496l-8.904-17.363zM1176.086 644.819h7.891c2.449 0 4.352-0.612 5.699-1.848 1.358-1.269 2.026-3.005 2.026-5.187 0-2.248-0.646-4.007-1.926-5.287-1.258-1.28-3.206-1.926-5.832-1.926h-7.858v14.247zM1233.575 657.675c0.005-0.082 0.007-0.177 0.007-0.273 0-1.613-0.766-3.048-1.955-3.959l-0.012-0.009c-1.302-1.002-3.651-2.048-7.046-3.128-3.127-0.974-5.791-2.080-8.33-3.394l0.283 0.133c-5.398-2.916-8.092-6.845-8.092-11.776 0-2.56 0.712-4.853 2.148-6.845 1.458-2.026 3.539-3.595 6.233-4.73 2.716-1.124 5.766-1.692 9.127-1.692 3.395 0 6.411 0.612 9.071 1.859 2.649 1.224 4.708 2.938 6.155 5.187 1.48 2.226 2.226 4.786 2.226 7.624h-9.784c0-2.17-0.69-3.862-2.059-5.053-1.369-1.224-3.295-1.825-5.766-1.825-2.393 0-4.252 0.512-5.576 1.536-1.213 0.866-1.994 2.268-1.994 3.853 0 0.042 0.001 0.085 0.002 0.127v-0.006c0 1.547 0.768 2.838 2.315 3.885 1.569 1.035 3.862 2.015 6.879 2.927 5.565 1.67 9.617 3.751 12.166 6.233 2.538 2.471 3.818 5.565 3.818 9.261 0 4.107-1.558 7.346-4.664 9.683-3.117 2.326-7.302 3.495-12.555 3.495-3.651 0-6.979-0.668-9.984-2.003-2.817-1.2-5.145-3.085-6.846-5.451l-0.033-0.048c-1.473-2.194-2.352-4.895-2.352-7.8 0-0.102 0.001-0.205 0.003-0.307v0.015h9.817c0 5.231 3.128 7.858 9.394 7.858 2.326 0 4.141-0.467 5.443-1.402 1.194-0.856 1.962-2.239 1.962-3.802 0-0.061-0.001-0.121-0.003-0.181v0.009z"></path>
</svg>
